Coordinates
version=1
nRows=16
nColumns=42
inDegrees=yes

Units are S.I. units (second, meters, Newtons, ...)
If the header above contains a line with 'inDegrees', this indicates whether rotational values are in degrees (yes) or radians (no).

endheader
time	pelvis_tilt	pelvis_list	pelvis_rotation	pelvis_tx	pelvis_ty	pelvis_tz	hip_flexion_r	hip_adduction_r	hip_rotation_r	knee_angle_r	knee_adduction_r	knee_angle_r_beta	ankle_angle_r	subtalar_angle_r	mtp_angle_r	hip_flexion_l	hip_adduction_l	hip_rotation_l	knee_angle_l	knee_adduction_l	knee_angle_l_beta	ankle_angle_l	subtalar_angle_l	mtp_angle_l	lumbar_extension	lumbar_bending	lumbar_rotation	arm_flex_r	arm_add_r	arm_rot_r	elbow_flex_r	pro_sup_r	wrist_flex_r	wrist_dev_r	arm_flex_l	arm_add_l	arm_rot_l	elbow_flex_l	pro_sup_l	wrist_flex_l	wrist_dev_l
      1.27000000	      1.62237387	      6.68277847	      5.97990309	     -1.05149287	      0.98577462	      0.31518810	     21.60847204	     -8.55319366	    -35.06413608	     21.55657334	     -8.82233323	      0.37623318	      1.65611234	     26.92428422	     -7.78286932	    -12.03384728	      5.63647647	     -8.47900505	     17.79156673	     -4.60398672	      0.31052142	     10.68569219	     20.65677697	     -7.78286932	    -22.88429803	     -7.66009965	     -9.19154487	    -10.46182929	    -10.45214744	     16.09164516	     37.37437454	     90.00000001	      0.00000000	      0.00000000	     18.39779062	    -18.96926028	     10.28982508	     48.61845560	     90.00000001	      0.00000000	      0.00000000
      1.28000000	      1.48621055	      6.58854221	      6.03852387	     -1.04441539	      0.98733357	      0.31711624	     21.13758006	     -8.26553211	    -35.57172127	     21.19118013	     -8.92367032	      0.36985587	      1.89188521	     27.86401096	     -7.76835773	    -11.44756483	      5.19934107	     -7.54093839	     19.41390114	     -4.23205331	      0.33883650	      9.51161108	     18.34705712	     -7.76835773	    -22.86495283	     -7.59006316	     -9.14226520	     -9.87223956	    -10.33733946	     15.88727766	     37.20440825	     90.00000001	      0.00000000	      0.00000000	     17.99915021	    -19.07735323	     10.73604976	     47.86005464	     90.00000001	      0.00000000	      0.00000000
      1.29000000	      1.44626355	      6.64793714	      6.08089613	     -1.03711325	      0.98898403	      0.31900749	     20.46445481	     -8.21088890	    -35.84454815	     20.86545873	     -8.71655965	      0.36417095	      2.39198897	     28.16374271	     -7.76494202	    -10.85942467	      4.77005112	     -7.27617513	     21.18186403	     -3.77360039	      0.36969327	      8.10032626	     17.47967212	     -7.76494202	    -22.91651490	     -7.69437996	     -9.18751694	     -9.28969598	    -10.24987170	     15.90165213	     37.16379913	     90.00000001	      0.00000000	      0.00000000	     17.44386465	    -19.17556527	     10.91376257	     47.21123438	     90.00000001	      0.00000000	      0.00000000
      1.30000000	      1.38728694	      6.65291497	      6.11953774	     -1.03004478	      0.99054023	      0.32095049	     19.84249862	     -8.05106508	    -36.17384762	     20.49218341	     -8.62603987	      0.35765607	      2.75801121	     28.68048370	     -7.76073373	    -10.10682059	      4.29773291	     -6.76465779	     23.19061800	     -3.27518703	      0.40475264	      6.76626526	     16.12711686	     -7.76073373	    -22.96336983	     -7.74900687	     -9.16653619	     -8.67192040	    -10.19030801	     15.90975057	     37.14309343	     90.00000001	      0.00000000	      0.00000000	     16.91603320	    -19.29773047	     11.10925551	     46.62145746	     90.00000001	      0.00000000	      0.00000000
      1.31000000	      1.47827822	      6.85666535	      6.07509529	     -1.02300783	      0.99229743	      0.32288449	     19.05130611	     -8.14731249	    -36.26957167	     20.22901926	     -8.36259030	      0.35306299	      3.09728462	     29.08789956	     -7.75876067	     -9.50615097	      4.02976323	     -6.23061291	     25.18525378	     -2.72178432	      0.43956560	      5.50398585	     15.35596149	     -7.75876067	    -23.19277523	     -8.02341304	     -9.13191986	     -8.04770495	    -10.14586273	     15.90943244	     37.25093705	     90.00000001	      0.00000000	      0.00000000	     16.39495540	    -19.43767087	     11.19143290	     46.12795010	     90.00000001	      0.00000000	      0.00000000
      1.32000000	      1.52146805	      6.94928703	      6.10165790	     -1.01603399	      0.99383019	      0.32467612	     18.29285039	     -8.13158686	    -36.53827366	     19.88879798	     -8.15092608	      0.34712501	      3.49073078	     29.55679885	     -7.75664342	     -8.67105092	      3.63582143	     -5.68867729	     27.46367977	     -2.18473762	      0.47933164	      4.10210170	     14.19176001	     -7.75664342	    -23.33567221	     -8.14447892	     -9.08672051	     -7.39461507	    -10.12826632	     15.95577334	     37.32815673	     90.00000001	      0.00000000	      0.00000000	     15.82944311	    -19.59161387	     11.25510372	     45.66553668	     90.00000001	      0.00000000	      0.00000000
      1.33000000	      1.38302259	      6.85937984	      6.19267852	     -1.00933261	      0.99495277	      0.32659761	     17.79275328	     -7.87291855	    -37.08009352	     19.46475069	     -8.14371729	      0.33972399	      3.84945508	     30.25194501	     -7.75226471	     -7.43872901	      3.03386971	     -4.80419524	     30.04300515	     -1.46369069	      0.52434936	      2.61042254	     11.87456201	     -7.75226471	    -23.26524038	     -8.11183970	     -9.02568427	     -6.70462275	    -10.16384699	     16.15640894	     37.35017154	     90.00000001	      0.00000000	      0.00000000	     15.18182534	    -19.72739068	     11.22129840	     45.28424081	     90.00000001	      0.00000000	      0.00000000
      1.34000000	      1.42898494	      7.00630109	      6.19773272	     -1.00265933	      0.99629605	      0.32835300	     17.08228336	     -7.94592095	    -37.33520342	     19.21101923	     -7.89578442	      0.33529554	      4.20368024	     30.78925561	     -7.74840826	     -6.43648054	      2.71745083	     -3.90041087	     32.46954414	     -0.71776276	      0.56670045	      1.26943477	     10.20238166	     -7.74840826	    -23.42318545	     -8.32170917	     -8.96240671	     -5.97976944	    -10.19698001	     16.34025341	     37.49911982	     90.00000001	      0.00000000	      0.00000000	     14.55663348	    -19.85442087	     11.07019166	     44.95982352	     90.00000001	      0.00000000	      0.00000000
      1.35000000	      1.38868771	      7.09146802	      6.13639698	     -0.99619912	      0.99730162	      0.33027533	     16.57355538	     -7.88937898	    -37.57520607	     18.98429595	     -7.83454826	      0.33133847	      4.51227089	     31.31371413	     -7.74279548	     -5.22416393	      2.31701000	     -2.81166117	     35.01248315	      0.28024338	      0.61108311	      0.01794464	      8.00650342	     -7.74279548	    -23.46744306	     -8.50691835	     -8.80610177	     -5.22554201	    -10.30465002	     16.68556690	     37.61033777	     90.00000001	      0.00000000	      0.00000000	     13.89789320	    -19.99123163	     10.71216889	     44.72121902	     90.00000001	      0.00000000	      0.00000000
      1.36000000	      1.41584246	      7.27284286	      6.07501173	     -0.98979949	      0.99834494	      0.33189798	     15.97092723	     -8.01402783	    -37.70502063	     18.83608242	     -7.61135040	      0.32875166	      4.80827320	     31.73786406	     -7.73288501	     -4.06152965	      2.07852006	     -1.61899062	     37.45754140	      1.30103164	      0.65375743	     -1.14534508	      5.83453696	     -7.73288501	    -23.59177307	     -8.75682906	     -8.67355012	     -4.42763427	    -10.45236382	     17.09370839	     37.75207174	     90.00000001	      0.00000000	      0.00000000	     13.21869846	    -20.06137114	     10.22828315	     44.49574571	     90.00000001	      0.00000000	      0.00000000
      1.37000000	      1.44801507	      7.39570553	      5.99101035	     -0.98359273	      0.99924305	      0.33368248	     15.39430259	     -8.05951093	    -37.83910502	     18.70837595	     -7.38909895	      0.32652276	      5.16975258	     32.05164387	     -7.71998038	     -2.78504850	      1.77458240	     -0.62658926	     39.92647935	      2.23067015	      0.69684852	     -2.17834495	      3.97188502	     -7.71998038	    -23.72539699	     -8.98245258	     -8.47685787	     -3.59058026	    -10.59609029	     17.51864434	     37.92294571	     90.00000001	      0.00000000	      0.00000000	     12.57519844	    -20.16725233	      9.66513739	     44.32321169	     90.00000001	      0.00000000	      0.00000000
      1.38000000	      1.49162167	      7.36832559	      5.84733895	     -0.97734924	      0.99989475	      0.33550751	     14.83525828	     -7.87051905	    -37.91304608	     18.51494623	     -7.25970337	      0.32314677	      5.53617234	     32.32835923	     -7.71286302	     -1.40750090	      1.24033773	     -0.05434443	     42.42943699	      3.06752388	      0.74053338	     -2.82803762	      2.81826965	     -7.71286302	    -23.80575240	     -9.05940814	     -8.11492479	     -2.77132415	    -10.79426181	     17.83782090	     38.07897149	     90.00000001	      0.00000000	      0.00000000	     11.88817958	    -20.22204985	      9.17070728	     44.22474132	     90.00000001	      0.00000000	      0.00000000
      1.39000000	      1.60025952	      7.35890140	      5.73999788	     -0.97132168	      1.00062176	      0.33720531	     14.18669231	     -7.74341710	    -37.99785454	     18.33542097	     -7.03180380	      0.32001347	      6.00033761	     32.52794932	     -7.70846110	     -0.05062336	      0.80046245	      0.39024399	     44.77086430	      3.63302672	      0.78139899	     -3.31844554	      1.82188725	     -7.70846110	    -23.99871553	     -9.13518650	     -7.80111751	     -1.87590151	    -10.98296315	     18.12288000	     38.25724195	     90.00000001	      0.00000000	      0.00000000	     11.25664408	    -20.31168055	      8.67024906	     44.11852686	     90.00000001	      0.00000000	      0.00000000
      1.40000000	      1.62413291	      7.32676530	      5.52697803	     -0.96523020	      1.00100104	      0.33897626	     13.74761956	     -7.51610958	    -38.05366311	     18.20773297	     -7.06542454	      0.31778489	      6.32648105	     32.82849276	     -7.70351366	      1.39871862	      0.29041262	      0.95712593	     46.96287322	      4.47676157	      0.81965676	     -3.59912846	      0.55689891	     -7.70351366	    -24.00791207	     -9.23437600	     -7.37461842	     -0.99603403	    -11.25215599	     18.62816823	     38.39053328	     90.00000001	      0.00000000	      0.00000000	     10.51313478	    -20.27579304	      7.91462508	     44.05167972	     90.00000001	      0.00000000	      0.00000000
      1.41000000	      1.60908474	      7.30256236	      5.30382766	     -0.95941670	      1.00130850	      0.34070808	     13.39546772	     -7.35835418	    -38.08374451	     18.17886486	     -7.01251549	      0.31728105	      6.60955567	     33.16411666	     -7.69670674	      2.88316903	     -0.16243139	      1.63209318	     48.84579000	      5.34486631	      0.85251986	     -3.83431433	     -0.94549874	     -7.69670674	    -24.01952900	     -9.35620743	     -6.94948034	     -0.02905971	    -11.57598951	     19.31646162	     38.51478588	     90.00000001	      0.00000000	      0.00000000	      9.80683194	    -20.25652229	      6.92165739	     43.98762022	     90.00000001	      0.00000000	      0.00000000
      1.42000000	      1.68336963	      7.28008015	      5.07282888	     -0.95363334	      1.00173574	      0.34231137	     12.93657230	     -7.18518180	    -38.09566462	     18.12131603	     -6.98837161	      0.31627663	      6.99152739	     33.45735881	     -7.69039588	      4.28426066	     -0.58153358	      2.03268287	     50.48966794	      5.93253335	      0.88121094	     -3.91064416	     -2.18758109	     -7.69039588	    -24.12361041	     -9.45391571	     -6.51500116	      0.98168556	    -11.87945585	     19.86198729	     38.62718720	     90.00000001	      0.00000000	      0.00000000	      9.11242069	    -20.21180432	      6.08556587	     43.94274020	     90.00000001	      0.00000000	      0.00000000
